<?xml version="1.0" encoding="utf-8"?>
<!-- Generator: Adobe Illustrator 14.0.0, SVG Export Plug-In . SVG Version: 6.00 Build 43363)  -->
<!DOCTYPE svg PUBLIC "-//W3C//DTD SVG 1.1//EN" "http://www.w3.org/Graphics/SVG/1.1/DTD/svg11.dtd">
<svg version="1.1" id="Layer_1" xmlns="http://www.w3.org/2000/svg" xmlns:xlink="http://www.w3.org/1999/xlink" x="0px" y="0px"
	 width="240px" height="140px" viewBox="-30 -25.5 240 140" enable-background="new -30 -25.5 240 140" xml:space="preserve">
<g>
	<path d="M184.966,26.295c3.476,3.252,7.727,5.808,6.371,12.746c-1.097,5.615-4.676,10.828-9.866,12.541
		c-3.004,0.992-6.035-0.078-9.252-0.821c-2.47-3.56-2.799-9.26-4.316-13.774c-2.109-0.536-7.219-1.668-8.84-0.206
		c-1.378,1.246-0.803,10.436-0.822,12.336c-0.049,5.123-0.362,8.587-0.615,12.745c-0.246,4.054-0.088,8.626-1.439,12.333
		c-1.256,3.449-2.902,7.084-5.14,9.457c-5.392,5.725-16.288,7.027-25.286,6.375c-1.159-0.085-2.334-0.605-3.494-0.617
		c-4.535-0.049-8.868,0.469-12.95-1.439c-2.285-1.069-6.499-4.656-7.815-7.195c-1.383-2.674-2.116-5.942-2.67-9.252
		c-1.244-7.408-1.531-16.622-1.438-24.876c0.053-4.828-0.347-9.476-0.206-14.183c0.203-6.738,1.733-12.842,4.111-18.503
		c2.633-6.268,6.973-9.941,14.391-11.306c3.143-0.579,6.227-1.625,9.867-1.85c3.627-0.225,7.988,0.291,11.923,0.823
		c8.513,1.147,14.21,5.199,16.241,12.951c0.869,3.314-0.041,6.247,2.057,10.278c2.912,1.214,9.543,1.114,10.688-1.439
		c1.036-2.301-0.636-10.333,0-14.802c0.726-5.081,4.842-8.498,11.514-8.633c3.978-0.081,8.345,1.293,9.868,4.11
		c1.397,2.587,2.47,9.96,1.438,13.569C188.338,20.955,184.946,23.108,184.966,26.295z M179.621,10.672
		c-4.482-3.445-6.189,6.847-1.236,6.988C179.518,16.254,181.688,12.26,179.621,10.672z M114.865,32.052
		c-1.725,2.383-1.831,6.189-1.85,9.25c-0.027,4.152,0.055,8.193,0.82,12.13c1.389,7.138,5.696,12.043,13.567,11.717
		c3.116-0.127,7.48-1.453,9.663-3.083c5.107-3.81,5.492-15.519,4.52-22.818c-0.402-3.028-0.951-6.542-2.467-8.223
		c-2.129-2.364-8.645-4.124-13.977-3.29C121.309,28.335,116.625,29.618,114.865,32.052z M179.416,43.563
		c3.559-0.508,2.176-10.374-2.264-7.606C175.737,38.896,176.172,44.027,179.416,43.563z"/>
	<path d="M21.532,69.26c-2.361-1.5-6.385-3.214-9.868-2.262c-0.066,4.543,1.273,8.34,0,12.541c-1.296,4.281-5.293,8.686-9.662,9.457
		c-12.341,2.18-14.613-11.769-12.129-20.763c0.461-1.675,2.369-4.367,2.261-5.962c-0.139-2.052-3.044-3.92-3.495-5.961
		c-0.541-2.446,0.081-6.949,0.823-9.869c0.958-3.769,3.599-8.104,5.756-9.661c1.706-1.23,6.493-3.11,10.073-1.438
		c2.058,0.962,4.24,5.097,4.934,7.401c1.313,4.361-0.008,9.252,0.617,13.157c2.146,1.723,7.621,1.513,10.279,0.41
		c1.997-3.707,0.522-8.443,0.822-13.158c0.568-8.864,0.874-17.207-0.206-26.107c-0.444-3.662-2.128-9.964-0.616-12.54
		c0.853-1.453,4.588-2.586,7.4-2.877c4.166-0.434,8.145-0.637,11.719-0.823c4.342-0.226,10.234-0.149,15.417,0.411
		c8.99,0.972,17.424,2.55,23.027,6.989c1.004,0.799,2.158,2.248,3.29,3.495c2.157,2.385,4.531,4.873,5.96,8.018
		c2.767,6.085,3.606,13.025,6.785,19.119c0.909,6.529,1.39,13.159,1.028,18.708c-0.069,1.851-1.083,3.847-0.822,5.344
		c-2.878,7.304-8.315,14.915-13.774,20.147c-2.449,2.345-6.562,4.572-10.28,5.959c-4.935,1.848-14.544,1.42-21.584,1.439
		c-7.59,0.023-15.121-0.965-21.586-2.261c-3.297-0.659-4.649-0.864-5.14-4.728C21.914,78.352,23.27,73.446,21.532,69.26z
		 M54.631,62.682c3.04,0.139,8.271,0.941,10.894,0.205c4.994-1.401,7.524-7.557,8.224-13.158c1.001-8.009-1.383-14.188-5.757-18.295
		c-2.155-2.022-5.789-2.88-9.25-3.7c-5.755-1.362-9.635-1.584-15.83,0.206c-1.287,5.416-0.206,11.486-0.206,17.269
		c0,5.919,0.059,11.173,1.027,16.446C46.73,63.107,50.862,62.51,54.631,62.682z M1.797,44.385c-0.952,0.622-0.629-0.564-1.645-0.41
		c-2.56,1.333-2.664,5.14-1.439,7.81C2.861,53.992,3.945,46.646,1.797,44.385z M1.181,77.072c3.85,0.064,3.727-7.408-0.412-8.018
		C-1.619,70.393-2.073,77.018,1.181,77.072z"/>
</g>
</svg>
